/vscmnt/brussel_pixiu_data/_data_brussel/112/vsc11236/PredSimResults/SUBJ04mtu3D/worker9.mot
version=1
nRows=7
nColumns=50
inDegrees=yes
endheader
                time	         pelvis_tilt	         pelvis_list	     pelvis_rotation	           pelvis_tx	           pelvis_ty	           pelvis_tz	       hip_flexion_r	     hip_adduction_r	      hip_rotation_r	        knee_angle_r	       ankle_angle_r	         mtp_angle_r	       hip_flexion_l	     hip_adduction_l	      hip_rotation_l	        knee_angle_l	       ankle_angle_l	         mtp_angle_l	    lumbar_extension	      lumbar_bending	     lumbar_rotation	 ercspn_r/activation	 intobl_r/activation	 extobl_r/activation	    abd_r/activation	    add_r/activation	hamstrings_r/activation	bifemsh_r/activation	glut_max_r/activation	iliopsoas_r/activation	rect_fem_r/activation	  vasti_r/activation	gastroc_r/activation	 soleus_r/activation	tib_ant_r/activation	 ercspn_l/activation	 intobl_l/activation	 extobl_l/activation	    abd_l/activation	    add_l/activation	hamstrings_l/activation	bifemsh_l/activation	glut_max_l/activation	iliopsoas_l/activation	rect_fem_l/activation	  vasti_l/activation	gastroc_l/activation	 soleus_l/activation	tib_ant_l/activation	
          1.99342143	         -2.98320956	         -1.16521765	         -7.19142199	          1.87381614	          0.88043003	          0.01094084	        -12.26657150	          0.36463577	         -8.53692539	         -8.22083181	         11.06412733	         23.82769403	         29.79697605	         -3.81811411	         -7.71553056	        -10.53249595	          4.96661370	          0.23197520	        -13.87006719	          4.04868750	          6.81754857	          0.03291925	          0.00999999	          0.00999999	          0.04970873	          0.00999999	          0.02505578	          0.13454963	          0.01528504	          0.00999999	          0.00999999	          0.00999999	          0.33146696	          0.21260640	          0.00999999	          0.03072635	          0.22732998	          0.01822513	          0.01443997	          0.26311938	          0.07173719	          0.08365570	          0.03323689	          0.14263580	          0.02131772	          0.01139472	          0.01822513	          0.01822513	          0.31835495	
          2.00671090	         -3.05977012	         -1.17644836	         -6.96699338	          1.88978467	          0.87833602	          0.01034466	        -12.97354660	          0.25891307	         -9.17073980	         -8.76825106	         10.62504324	         25.24720733	         29.68843160	         -3.72500800	         -7.85426916	        -12.02933555	          4.70560272	          0.22343165	        -13.37746687	          3.45982588	          6.90961708	          0.03606434	          0.00999999	          0.00999999	          0.04069511	          0.00999999	          0.02051245	          0.11015194	          0.01251343	          0.00999999	          0.00999999	          0.00999999	          0.30755762	          0.20345580	          0.00999999	          0.02515478	          0.22300893	          0.01492040	          0.03099992	          0.21683847	          0.06966712	          0.06848653	          0.06028479	          0.11677186	          0.01745221	          0.00999999	          0.01492040	          0.01492039	          0.34845027	
          2.02000038	         -3.12237777	         -1.13487644	         -6.69362167	          1.90602156	          0.87653023	          0.00965941	        -13.55899295	          0.07989116	         -9.83648894	         -9.58356725	         10.08697934	         26.70306903	         29.53231986	         -3.60136488	         -8.02792755	        -13.41154301	          4.25735008	          0.21206794	        -12.86529153	          2.79073993	          6.97490333	          0.05304511	          0.00999999	          0.00999999	          0.03331593	          0.00999999	          0.01679296	          0.09017825	          0.01024438	          0.01822513	          0.00999999	          0.00999999	          0.26858112	          0.18805913	          0.00999999	          0.03082163	          0.18257104	          0.01221490	          0.05373578	          0.22356300	          0.06947832	          0.05606797	          0.06544553	          0.09559778	          0.01428763	          0.05663442	          0.01221490	          0.01221490	          0.37307047	
          2.03328986	         -3.17120322	         -1.05252395	         -6.37393361	          1.92239600	          0.87518248	          0.00886493	        -13.95843191	         -0.17285485	        -10.53444655	        -10.76392998	          9.41928416	         28.18034622	         29.32637173	         -3.44408950	         -8.28454141	        -14.72084737	          3.82967975	          0.19125113	        -12.35298869	          2.06197850	          7.01053577	          0.06257337	          0.00999999	          0.00999999	          0.02727480	          0.00999999	          0.01374792	          0.07382635	          0.00999999	          0.01492039	          0.00999999	          0.00999999	          0.21987969	          0.16758404	          0.00999999	          0.02842309	          0.14946569	          0.00999999	          0.07507301	          0.21653734	          0.06934598	          0.04590124	          0.05381015	          0.07826317	          0.01169687	          0.11397612	          0.00999999	          0.00999999	          0.39852838	
          2.04657933	         -3.20662926	         -0.92582646	         -6.02131064	          1.93882058	          0.87441039	          0.00796278	        -14.12347717	         -0.51842928	        -11.25768003	        -12.37899728	          8.60448245	         29.63683633	         29.00685140	         -3.23715848	         -8.59567452	        -15.87960437	          3.57065783	          0.17031791	        -11.85104166	          1.27617101	          7.01672220	          0.08234181	          0.00999999	          0.00999999	          0.02232910	          0.00999999	          0.01912510	          0.06043953	          0.00999999	          0.01221490	          0.00999999	          0.01192821	          0.18000922	          0.13719626	          0.00999999	          0.02326917	          0.12236329	          0.00999999	          0.10363765	          0.19744297	          0.07148105	          0.03757804	          0.04985507	          0.06407182	          0.00999999	          0.15811307	          0.00999999	          0.00999999	          0.40528956	
          2.05986881	         -3.23011763	         -0.75354504	         -5.65026712	          1.95515202	          0.87432212	          0.00696330	        -14.00949958	         -0.97405603	        -11.99358004	        -14.47782362	          7.61225764	         31.01349504	         28.55928154	         -2.96235680	         -8.88599218	        -16.84933922	          3.49190022	          0.15255330	        -11.37507278	          0.43730216	          6.99735565	          0.09970257	          0.00999999	          0.00999999	          0.01828019	          0.00999999	          0.06581200	          0.04948011	          0.00999999	          0.00999999	          0.00999999	          0.01768474	          0.14736840	          0.11231866	          0.00999999	          0.01904981	          0.10017533	          0.00999999	          0.12704827	          0.18437340	          0.07151459	          0.03076406	          0.04320137	          0.05245377	          0.00999999	          0.18858811	          0.00999999	          0.00999999	          0.39954867	
          2.07315828	         -3.24267130	         -0.54531221	         -5.27227692	          1.97127100	          0.87496141	          0.00588435	        -13.59959511	         -1.54168606	        -12.72707434	        -17.05888531	          6.40163746	         32.23440926	         27.98845249	         -2.61789534	         -9.09318027	        -17.62143713	          3.57287769	          0.14014817	        -10.93828090	         -0.43937124	          6.95543502	          0.10137098	          0.01213719	          0.00999999	          0.01496547	          0.03819550	          0.08869725	          0.04050795	          0.01221490	          0.00999999	          0.00999999	          0.01447799	          0.12064630	          0.09195208	          0.00999999	          0.01559553	          0.08201068	          0.00999999	          0.13743672	          0.18602855	          0.07442632	          0.02518566	          0.03536773	          0.04294240	          0.00999999	          0.19968077	          0.00999999	          0.00999999	          0.38436555	
